<svg width="60" height="60" viewBox="0 0 60 60" fill="none" xmlns="http://www.w3.org/2000/svg">
<rect width="60" height="60" rx="30" fill="#00AEEF"/>
<path d="M47.4006 29.1417L33.858 15.5988C33.4715 15.2122 32.9562 15 32.4068 15C31.8568 15 31.3419 15.2125 30.9553 15.5988L29.7258 16.8286C29.3395 17.2146 29.1267 17.7302 29.1267 18.2799C29.1267 18.8292 29.3395 19.3622 29.7258 19.7481L37.6263 27.6661H12.5259C11.3942 27.6661 10.5 28.552 10.5 29.684V31.4227C10.5 32.5547 11.3942 33.53 12.5259 33.53H37.7159L29.7261 41.4922C29.3398 41.8787 29.127 42.3803 29.127 42.93C29.127 43.479 29.3398 43.9879 29.7261 44.3742L30.9556 45.6001C31.3422 45.9866 31.8571 46.1973 32.4071 46.1973C32.9565 46.1973 33.4718 45.9839 33.8583 45.5973L47.4009 32.0547C47.7884 31.6669 48.0015 31.1493 48 30.599C48.0012 30.0468 47.7884 29.5288 47.4006 29.1417Z" fill="white"/>
</svg>
