<svg width="50" height="50" viewBox="0 0 50 50" fill="none" xmlns="http://www.w3.org/2000/svg">
<g clip-path="url(#clip0_14_35044)">
<path d="M49.2008 23.0572L31.1441 5.00003C30.6286 4.48458 29.9416 4.20166 29.2091 4.20166C28.4758 4.20166 27.7892 4.48499 27.2738 5.00003L25.6343 6.63985C25.1193 7.15448 24.8356 7.84187 24.8356 8.5748C24.8356 9.30731 25.1193 10.0179 25.6343 10.5325L36.1684 21.0897H2.7012C1.19227 21.0897 0 22.271 0 23.7804V26.0986C0 27.608 1.19227 28.9084 2.7012 28.9084H36.2879L25.6348 39.5245C25.1197 40.04 24.836 40.7087 24.836 41.4416C24.836 42.1737 25.1197 42.8522 25.6348 43.3672L27.2742 45.0017C27.7896 45.5172 28.4762 45.7981 29.2095 45.7981C29.942 45.7981 30.629 45.5135 31.1445 44.9981L49.2012 26.9413C49.7179 26.4242 50.002 25.734 50 25.0003C50.0016 24.2641 49.7179 23.5735 49.2008 23.0572Z" fill="white"/>
</g>
<defs>
<clipPath id="clip0_14_35044">
<rect width="50" height="50" fill="white"/>
</clipPath>
</defs>
</svg>
